<svg width="551" height="98" viewBox="0 0 551 98" fill="none" xmlns="http://www.w3.org/2000/svg">
<g filter="url(#filter0_d)">
<path d="M69.848 33.976C69.848 33.976 69.848 31.96 71.18 29.872H65.456L58.76 48.664L49.544 29.872H44.612C45.548 31.42 45.908 32.572 45.908 34.912V49.888C45.8 52.3 45.656 53.272 44.612 54.928H50.3C49.256 53.344 48.896 52.12 48.896 49.888V38.584L54.584 52.48C55.34 54.064 56.78 55.216 58.832 55.108L65.456 37.9V50.824C65.456 52.264 64.988 53.632 64.088 54.928H71.18C69.848 52.84 69.848 50.824 69.848 50.824V33.976ZM86.1417 52.876C84.1617 52.876 82.6137 52.696 81.2457 49.78C81.0657 49.42 81.1017 49.204 81.1017 49.204L89.1657 39.232C89.1657 39.232 87.5817 36.604 83.5137 36.604C78.2217 36.604 75.9177 40.456 75.9177 45.784C75.9177 52.48 78.9057 55.504 83.4777 55.504C87.5097 55.504 89.1657 52.876 89.4897 52.48C88.4097 52.696 87.2577 52.876 86.1417 52.876ZM79.1217 41.212C79.1937 39.808 79.5177 39.088 80.7777 39.16C83.8017 39.34 85.7097 40.204 83.8737 43.012C83.2617 43.948 80.6697 47.836 80.6697 47.836C80.6697 47.8 79.1217 43.768 79.1217 41.212ZM114.486 55.036H120.966C119.742 52.66 119.67 51.292 119.67 50.86L119.634 41.104C119.634 39.34 119.526 36.424 115.494 36.424C112.722 36.424 109.806 39.412 109.374 39.88C109.23 38.224 108.438 36.424 105.342 36.424C102.678 36.424 99.906 39.052 99.222 39.772V36.424C99.222 36.424 93.786 38.908 93.786 38.944C95.118 40.168 95.118 42.148 95.118 42.148C95.118 45.064 95.118 47.98 95.118 50.86C95.118 51.364 95.082 53.452 93.786 55.036H100.698C99.366 52.912 99.33 50.968 99.33 50.788L99.258 40.78C100.41 40.312 101.418 40.096 102.174 40.096C105.594 40.096 105.594 42.94 105.594 42.94V50.788C105.594 50.896 105.522 51.868 104.262 55.036H110.778C109.554 52.66 109.446 51.292 109.446 50.86L109.41 40.816C110.454 40.384 111.498 40.204 112.578 40.204C115.746 40.204 115.782 42.94 115.782 43.696V50.788C115.782 50.896 115.746 51.868 114.486 55.036ZM140.378 50.284C140.378 47.404 140.378 45.028 140.378 42.148C140.378 41.464 140.306 38.8 135.338 36.856C132.674 35.812 129.686 36.1 127.634 38.116L129.398 42.508C130.406 40.42 132.494 38.656 134.654 38.656C135.77 38.656 136.022 41.572 135.95 42.364C133.574 43.516 129.542 45.532 126.41 47.116C125.618 47.548 125.294 48.268 125.294 49.024C125.294 51.58 128.75 55.252 130.946 55.252C132.926 55.252 135.446 52.732 136.166 52.012V52.624C136.166 54.676 137.75 55.036 137.75 55.036L141.674 53.38C140.414 52.372 140.378 50.608 140.378 50.284ZM133.034 51.328C132.494 51.328 131.99 51.292 131.522 51.184C130.658 51.004 129.974 49.924 129.974 48.808C129.974 47.98 130.37 47.116 131.342 46.504C134.258 44.704 135.446 43.984 135.986 43.66L136.166 50.86C135.482 51.148 134.222 51.328 133.034 51.328ZM156.53 37.108C157.718 38.548 158.618 39.304 158.078 41.14L154.658 50.5C154.658 50.5 151.994 42.112 151.526 40.636C151.058 39.16 151.166 38.188 152.318 37.108H143.894C145.046 38.296 145.982 39.844 146.666 41.68C147.314 43.48 151.49 54.964 151.49 54.964C151.49 56.008 150.518 60.004 148.178 60.004C146.414 60.004 145.478 57.196 145.478 57.196L141.698 60.832C141.698 60.832 142.742 62.092 145.91 62.092C149.042 62.092 152.858 59.104 154.55 55.036C156.206 51.004 160.31 41.104 160.31 41.104C161.066 39.232 161.93 38.224 163.046 37.108H156.53ZM184.09 53.056C182.722 51.832 182.722 49.816 182.722 49.816V36.604L177.178 39.124C178.546 40.348 178.546 42.364 178.546 42.364V51.184C177.286 51.688 176.35 51.868 175.522 51.868C171.994 51.868 171.994 48.628 171.994 48.628V36.604L166.81 38.98C168.142 40.168 168.142 42.22 168.142 42.22V50.896C168.142 52.624 168.25 55.576 172.282 55.576H172.354C174.946 55.54 177.898 52.876 178.618 52.192V55.324C178.618 55.324 184.09 53.092 184.09 53.056ZM208.617 55.036H215.133C213.909 52.66 213.801 51.328 213.801 50.896C213.801 50.824 213.765 43.228 213.765 41.428V41.104C213.765 39.34 213.657 36.424 209.625 36.424C207.033 36.424 203.829 39.052 203.037 39.772V27.28C203.037 27.28 197.601 29.764 197.601 29.8C198.933 31.024 198.933 33.004 198.933 33.004V50.788C198.933 51.364 198.897 53.416 197.601 55.036H204.513C203.181 52.912 203.145 50.968 203.145 50.788C203.145 47.512 203.109 44.128 203.109 40.78C204.261 40.312 205.233 40.096 206.025 40.096C209.913 40.096 209.949 42.904 209.949 42.976C209.949 45.604 209.949 48.196 209.949 50.788C209.949 50.932 209.877 51.868 208.617 55.036ZM234.527 50.284C234.527 47.404 234.527 45.028 234.527 42.148C234.527 41.464 234.455 38.8 229.487 36.856C226.823 35.812 223.835 36.1 221.783 38.116L223.547 42.508C224.555 40.42 226.643 38.656 228.803 38.656C229.919 38.656 230.171 41.572 230.099 42.364C227.723 43.516 223.691 45.532 220.559 47.116C219.767 47.548 219.443 48.268 219.443 49.024C219.443 51.58 222.899 55.252 225.095 55.252C227.075 55.252 229.595 52.732 230.315 52.012V52.624C230.315 54.676 231.899 55.036 231.899 55.036L235.823 53.38C234.563 52.372 234.527 50.608 234.527 50.284ZM227.183 51.328C226.643 51.328 226.139 51.292 225.671 51.184C224.807 51.004 224.123 49.924 224.123 48.808C224.123 47.98 224.519 47.116 225.491 46.504C228.407 44.704 229.595 43.984 230.135 43.66L230.315 50.86C229.631 51.148 228.371 51.328 227.183 51.328ZM250.679 37.108C251.867 38.548 252.767 39.304 252.227 41.14L248.807 50.5C248.807 50.5 246.143 42.112 245.675 40.636C245.207 39.16 245.315 38.188 246.467 37.108H238.043C239.195 38.296 240.131 39.844 240.815 41.68C241.463 43.48 245.639 54.964 245.639 54.964C245.639 56.008 244.667 60.004 242.327 60.004C240.563 60.004 239.627 57.196 239.627 57.196L235.847 60.832C235.847 60.832 236.891 62.092 240.059 62.092C243.191 62.092 247.007 59.104 248.699 55.036C250.355 51.004 254.459 41.104 254.459 41.104C255.215 39.232 256.079 38.224 257.195 37.108H250.679ZM278.239 53.056C276.871 51.832 276.871 49.816 276.871 49.816V36.604L271.327 39.124C272.695 40.348 272.695 42.364 272.695 42.364V51.184C271.435 51.688 270.499 51.868 269.671 51.868C266.143 51.868 266.143 48.628 266.143 48.628V36.604L260.959 38.98C262.291 40.168 262.291 42.22 262.291 42.22V50.896C262.291 52.624 262.399 55.576 266.431 55.576H266.503C269.095 55.54 272.047 52.876 272.767 52.192V55.324C272.767 55.324 278.239 53.092 278.239 53.056ZM300.411 55C299.187 52.624 299.079 51.256 299.079 50.86C299.079 47.584 299.043 44.308 299.043 41.068C299.043 37.792 297.315 36.388 294.831 36.388C292.383 36.388 288.999 39.124 288.243 39.772V36.388C288.243 36.388 282.807 38.836 282.807 38.908C284.139 40.132 284.139 42.112 284.139 42.112C284.139 45.028 284.139 47.944 284.139 50.86C284.139 51.328 284.067 53.452 282.807 55H289.719C288.387 52.876 288.351 50.932 288.351 50.752L288.279 40.744C289.467 40.24 290.439 40.024 291.267 40.024C295.227 40.024 295.227 42.868 295.227 42.868C295.227 45.46 295.227 48.088 295.227 50.716C295.227 50.86 295.155 51.832 293.895 55H300.411ZM308.138 35.02L311.414 31.456C311.414 31.456 309.434 30.448 308.21 28.144L304.826 31.42C304.826 31.42 305.906 33.76 308.138 35.02ZM311.846 55.036C310.514 52.912 310.478 50.968 310.478 50.788L310.442 36.604L304.898 39.124C306.266 40.24 306.266 42.328 306.266 42.328V50.896C306.266 51.4 306.194 53.488 304.898 55.036H311.846ZM334.013 55C332.789 52.624 332.681 51.256 332.681 50.86C332.681 47.584 332.645 44.308 332.645 41.068C332.645 37.792 330.917 36.388 328.433 36.388C325.985 36.388 322.601 39.124 321.845 39.772V36.388C321.845 36.388 316.409 38.836 316.409 38.908C317.741 40.132 317.741 42.112 317.741 42.112C317.741 45.028 317.741 47.944 317.741 50.86C317.741 51.328 317.669 53.452 316.409 55H323.321C321.989 52.876 321.953 50.932 321.953 50.752L321.881 40.744C323.069 40.24 324.041 40.024 324.869 40.024C328.829 40.024 328.829 42.868 328.829 42.868C328.829 45.46 328.829 48.088 328.829 50.716C328.829 50.86 328.757 51.832 327.497 55H334.013ZM355.641 38.836V34.588C352.761 34.588 351.249 36.532 350.601 37.864C349.449 37.036 347.973 36.604 346.317 36.604C342.249 36.604 338.901 39.52 338.901 42.544C338.901 45.208 340.305 47.26 342.393 48.268C340.845 48.736 338.433 50.068 338.433 51.58C338.433 52.696 339.909 53.776 344.193 54.136C352.509 54.892 353.445 56.548 352.509 57.484C350.853 59.176 345.309 58.852 343.401 55.576L339.333 59.464C340.413 60.904 342.321 62.056 346.101 62.056C349.953 62.056 354.561 58.132 355.389 55.108C356.469 51.148 352.977 51.4 348.657 51.4C344.445 51.4 342.969 50.644 342.969 49.672C342.969 49.24 343.185 48.88 343.329 48.628C344.121 48.916 344.985 49.024 345.957 49.024C350.061 49.024 353.337 47.476 353.409 43.012C353.409 41.284 352.689 39.736 351.501 38.584C352.905 38.08 354.309 38.152 355.641 38.836ZM348.405 46.828C345.777 46.828 344.013 46.108 343.077 43.156C342.717 42.076 342.501 41.212 342.501 40.564C342.501 39.448 343.077 38.872 344.373 38.872C346.929 38.872 348.261 40.06 349.197 43.084C349.557 44.2 349.737 45.028 349.737 45.64C349.737 46.468 349.341 46.828 348.405 46.828ZM380.275 36.604C378.115 36.604 374.803 39.232 374.083 39.844V27.352L368.575 29.872C369.907 31.096 369.907 33.112 369.907 33.112V55.144C369.907 55.144 371.635 54.496 373.111 53.848C375.163 54.928 376.963 55.432 378.547 55.432C383.191 55.432 385.603 51.148 385.603 45.712C385.603 41.536 383.839 36.604 380.275 36.604ZM379.771 52.696C377.899 54.136 374.839 53.128 374.263 50.86C374.119 50.212 374.083 49.564 374.083 49.42C374.083 46.504 374.083 43.876 374.083 40.924C374.659 40.636 375.919 40.348 377.179 40.348C378.295 40.348 379.411 40.6 380.059 41.392C380.743 42.292 381.139 44.596 381.139 46.972C381.139 49.492 380.671 51.976 379.771 52.696ZM405.302 50.284C405.302 47.404 405.302 45.028 405.302 42.148C405.302 41.464 405.23 38.8 400.262 36.856C397.598 35.812 394.61 36.1 392.558 38.116L394.322 42.508C395.33 40.42 397.418 38.656 399.578 38.656C400.694 38.656 400.946 41.572 400.874 42.364C398.498 43.516 394.466 45.532 391.334 47.116C390.542 47.548 390.218 48.268 390.218 49.024C390.218 51.58 393.674 55.252 395.87 55.252C397.85 55.252 400.37 52.732 401.09 52.012V52.624C401.09 54.676 402.674 55.036 402.674 55.036L406.598 53.38C405.338 52.372 405.302 50.608 405.302 50.284ZM397.958 51.328C397.418 51.328 396.914 51.292 396.446 51.184C395.582 51.004 394.898 49.924 394.898 48.808C394.898 47.98 395.294 47.116 396.266 46.504C399.182 44.704 400.37 43.984 400.91 43.66L401.09 50.86C400.406 51.148 399.146 51.328 397.958 51.328ZM429.484 37.108C430.924 38.08 431.464 39.376 431.104 41.032L428.512 50.536L424.912 39.664C424.588 38.62 423.832 37.54 422.86 37.612L419.224 50.608C419.224 50.608 417.388 45.892 416.308 42.508C415.48 39.952 414.76 39.124 416.668 37.108H408.712C409.9 38.296 410.332 38.728 410.944 40.276C411.736 42.328 416.524 55.036 416.524 55.036H419.116L422.464 45.532L425.848 55.036H428.368C428.368 55.036 432.004 45.316 433.3 41.176C433.984 39.628 434.956 38.26 436.18 37.108H429.484ZM453.986 50.284C453.986 47.404 453.986 45.028 453.986 42.148C453.986 41.464 453.914 38.8 448.946 36.856C446.282 35.812 443.294 36.1 441.242 38.116L443.006 42.508C444.014 40.42 446.102 38.656 448.262 38.656C449.378 38.656 449.63 41.572 449.558 42.364C447.182 43.516 443.15 45.532 440.018 47.116C439.226 47.548 438.902 48.268 438.902 49.024C438.902 51.58 442.358 55.252 444.554 55.252C446.534 55.252 449.054 52.732 449.774 52.012V52.624C449.774 54.676 451.358 55.036 451.358 55.036L455.282 53.38C454.022 52.372 453.986 50.608 453.986 50.284ZM446.642 51.328C446.102 51.328 445.598 51.292 445.13 51.184C444.266 51.004 443.582 49.924 443.582 48.808C443.582 47.98 443.978 47.116 444.95 46.504C447.866 44.704 449.054 43.984 449.594 43.66L449.774 50.86C449.09 51.148 447.83 51.328 446.642 51.328ZM477.374 55C476.15 52.624 476.042 51.256 476.042 50.86C476.042 47.584 476.006 44.308 476.006 41.068C476.006 37.792 474.278 36.388 471.794 36.388C469.346 36.388 465.962 39.124 465.206 39.772V36.388C465.206 36.388 459.77 38.836 459.77 38.908C461.102 40.132 461.102 42.112 461.102 42.112C461.102 45.028 461.102 47.944 461.102 50.86C461.102 51.328 461.03 53.452 459.77 55H466.682C465.35 52.876 465.314 50.932 465.314 50.752L465.242 40.744C466.43 40.24 467.402 40.024 468.23 40.024C472.19 40.024 472.19 42.868 472.19 42.868C472.19 45.46 472.19 48.088 472.19 50.716C472.19 50.86 472.118 51.832 470.858 55H477.374ZM496.729 50.284C496.729 47.404 496.729 45.028 496.729 42.148C496.729 41.464 496.657 38.8 491.689 36.856C489.025 35.812 486.037 36.1 483.985 38.116L485.749 42.508C486.757 40.42 488.845 38.656 491.005 38.656C492.121 38.656 492.373 41.572 492.301 42.364C489.925 43.516 485.893 45.532 482.761 47.116C481.969 47.548 481.645 48.268 481.645 49.024C481.645 51.58 485.101 55.252 487.297 55.252C489.277 55.252 491.797 52.732 492.517 52.012V52.624C492.517 54.676 494.101 55.036 494.101 55.036L498.025 53.38C496.765 52.372 496.729 50.608 496.729 50.284ZM489.385 51.328C488.845 51.328 488.341 51.292 487.873 51.184C487.009 51.004 486.325 49.924 486.325 48.808C486.325 47.98 486.721 47.116 487.693 46.504C490.609 44.704 491.797 43.984 492.337 43.66L492.517 50.86C491.833 51.148 490.573 51.328 489.385 51.328Z" fill="#DA622A"/>
<path d="M8.584 6.68C8.584 4.376 9.16 2.84 9.16 2.84C9.16 2.84 4.456 8.888 3.112 13.976C2.92 14.936 2.824 15.896 2.824 16.76C2.824 23.768 9.928 27.224 9.928 27.224C12.52 24.536 16.744 20.504 16.744 20.504C9.928 15.704 8.584 10.232 8.584 6.68ZM23.464 6.68C23.464 4.376 24.04 2.84 24.04 2.84C24.04 2.84 19.24 8.888 17.992 13.976C17.704 14.936 17.608 15.896 17.608 16.76C17.608 23.768 24.712 27.224 24.712 27.224C27.4 24.536 31.624 20.504 31.624 20.504C24.808 15.704 23.464 10.232 23.464 6.68Z" fill="#2B2869"/>
<path d="M534.416 83.32C534.416 85.624 533.84 87.16 533.84 87.16C533.84 87.16 538.544 81.112 539.888 76.024C540.08 75.064 540.176 74.104 540.176 73.24C540.176 66.232 533.072 62.776 533.072 62.776C530.48 65.464 526.256 69.496 526.256 69.496C533.072 74.296 534.416 79.768 534.416 83.32ZM519.536 83.32C519.536 85.624 518.96 87.16 518.96 87.16C518.96 87.16 523.76 81.112 525.008 76.024C525.296 75.064 525.392 74.104 525.392 73.24C525.392 66.232 518.288 62.776 518.288 62.776C515.6 65.464 511.376 69.496 511.376 69.496C518.192 74.296 519.536 79.768 519.536 83.32Z" fill="#2B2869"/>
</g>
<defs>
<filter id="filter0_d" x="0.823975" y="0.840088" width="549.352" height="96.32" filterUnits="userSpaceOnUse" color-interpolation-filters="sRGB">
<feFlood flood-opacity="0" result="BackgroundImageFix"/>
<feColorMatrix in="SourceAlpha" type="matrix" values="0 0 0 0 0 0 0 0 0 0 0 0 0 0 0 0 0 0 127 0"/>
<feOffset dx="4" dy="4"/>
<feGaussianBlur stdDeviation="3"/>
<feColorMatrix type="matrix" values="0 0 0 0 0 0 0 0 0 0 0 0 0 0 0 0 0 0 0.25 0"/>
<feBlend mode="normal" in2="BackgroundImageFix" result="effect1_dropShadow"/>
<feBlend mode="normal" in="SourceGraphic" in2="effect1_dropShadow" result="shape"/>
</filter>
</defs>
</svg>
