<svg width="36" height="198" viewBox="0 0 36 198" fill="none" xmlns="http://www.w3.org/2000/svg">
<path fill-rule="evenodd" clip-rule="evenodd" d="M12 86H24V83H27V86H28.5C29.2956 86 30.0587 86.3161 30.6213 86.8787C31.1839 87.4413 31.5 88.2044 31.5 89V110C31.5 110.796 31.1839 111.559 30.6213 112.121C30.0587 112.684 29.2956 113 28.5 113H7.5C6.70435 113 5.94129 112.684 5.37868 112.121C4.81607 111.559 4.5 110.796 4.5 110V89C4.5 88.2044 4.81607 87.4413 5.37868 86.8787C5.94129 86.3161 6.70435 86 7.5 86H9V83H12V86ZM7.5 92V110H28.5V92H7.5ZM10.5 96.5H13.5V99.5H10.5V96.5ZM16.5 96.5H19.5V99.5H16.5V96.5ZM22.5 96.5H25.5V99.5H22.5V96.5ZM22.5 102.5H25.5V105.5H22.5V102.5ZM16.5 102.5H19.5V105.5H16.5V102.5ZM10.5 102.5H13.5V105.5H10.5V102.5Z" fill="black"/>
<line x1="19" y1="1" x2="19" y2="79" stroke="black" stroke-width="2" stroke-linecap="round"/>
<line x1="19" y1="119" x2="19" y2="197" stroke="black" stroke-width="2" stroke-linecap="round"/>
</svg>
