<svg width="36" height="36" viewBox="0 0 36 36" fill="none" xmlns="http://www.w3.org/2000/svg">
<path d="M18.0001 0.719971C8.45466 0.719971 0.718262 8.45637 0.718262 18C0.718025 20.2695 1.16487 22.5169 2.03328 24.6137C2.90169 26.7105 4.17465 28.6158 5.77946 30.2206C7.38427 31.8254 9.28949 33.0984 11.3863 33.9668C13.4832 34.8352 15.7305 35.282 18.0001 35.2818C27.5419 35.2818 35.2801 27.5454 35.2801 18C35.2801 8.45637 27.5419 0.719971 18.0001 0.719971ZM19.6129 6.95877C21.2977 6.95877 21.7927 7.93617 21.7927 9.05397C21.7927 10.449 20.6767 11.7396 18.7705 11.7396C17.1757 11.7396 16.4161 10.9386 16.4629 9.61197C16.4629 8.49417 17.3971 6.95877 19.6129 6.95877ZM15.2965 28.35C14.1445 28.35 13.3039 27.6498 14.1085 24.5808L15.4279 19.1358C15.6565 18.2646 15.6943 17.9154 15.4279 17.9154C15.0841 17.9154 13.5883 18.5166 12.7063 19.1106L12.1321 18.1692C14.9311 15.831 18.1495 14.4594 19.5265 14.4594C20.6785 14.4594 20.8693 15.8202 20.2951 17.9154L18.7831 23.6394C18.5149 24.651 18.6301 25.0002 18.8983 25.0002C19.2439 25.0002 20.3743 24.5826 21.4867 23.706L22.1383 24.5808C19.4149 27.3024 16.4467 28.35 15.2965 28.35Z" fill="white"/>
</svg>
