<svg width="120" height="118" viewBox="0 0 120 118" fill="none" xmlns="http://www.w3.org/2000/svg">
<g filter="url(#filter0_d)">
<path d="M6 31C6 17.1929 17.1929 6 31 6H106V79C106 92.8071 94.8071 104 81 104H6V31Z" fill="white"/>
</g>
<g clip-path="url(#clip0)" filter="url(#filter1_d)">
<path d="M39.7089 78.3828L40.8042 78.9242C45.3686 81.6309 50.4802 82.894 55.5921 82.894C71.6577 82.894 84.8023 69.9017 84.8023 54.0222C84.8023 46.4434 81.6986 39.045 76.2219 33.6314C70.7449 28.2179 63.4421 25.1504 55.5921 25.1504C39.5265 25.1504 26.3817 38.1427 26.5644 54.2028C26.5644 59.6161 28.2075 64.8493 30.9458 69.3603L31.676 70.4431L28.7552 81.0897L39.7089 78.3828Z" fill="#00E676"/>
<path d="M79.325 30.7442C73.1179 24.4286 64.5374 21 55.7743 21C37.153 21 22.1827 35.9772 22.3651 54.2025C22.3651 59.9769 24.0082 65.571 26.7468 70.6235L22 87.7661L39.7087 83.2549C44.6379 85.9618 50.1146 87.225 55.5919 87.225C74.0307 87.225 89.001 72.2475 89.001 54.0225C89.001 45.1803 85.5322 36.8795 79.3253 30.7442H79.325ZM55.7743 81.6311C50.8451 81.6311 45.9159 80.3682 41.7168 77.8419L40.6216 77.3004L30.0329 80.0071L32.7713 69.7217L32.0411 68.6388C24.0082 55.8271 27.8421 38.8644 40.9866 30.9245C54.1312 22.9849 71.1097 26.7744 79.1426 39.7667C87.1753 52.759 83.3414 69.5409 70.1971 77.4807C65.9978 80.1874 60.8862 81.6309 55.7743 81.6309V81.6311ZM71.8399 61.6015L69.8317 60.6992C69.8317 60.6992 66.9109 59.436 65.0852 58.5337C64.9025 58.5337 64.7201 58.3531 64.5374 58.3531C63.9896 58.3531 63.6245 58.5337 63.2594 58.7143C63.2594 58.7143 63.077 58.8946 60.5211 61.7818C60.3384 62.1427 59.9733 62.3232 59.6082 62.3232H59.4255C59.2431 62.3232 58.878 62.1427 58.6953 61.9624L57.7824 61.6015C55.7743 60.6992 53.9488 59.6163 52.4881 58.1728C52.123 57.812 51.5753 57.4511 51.2102 57.0902C49.9322 55.8271 48.6542 54.3833 47.7416 52.7593L47.5589 52.3984C47.3765 52.2179 47.3765 52.0376 47.1938 51.6767C47.1938 51.3158 47.1938 50.9549 47.3765 50.7744C47.3765 50.7744 48.1067 49.8721 48.6542 49.3309C49.0196 48.9698 49.202 48.4286 49.5671 48.0677C49.9322 47.5263 50.1149 46.8046 49.9322 46.2631C49.7498 45.3608 47.5589 40.4887 47.0114 39.4061C46.6461 38.8647 46.2812 38.6844 45.7334 38.5038H43.7253C43.3599 38.5038 42.9951 38.6844 42.6297 38.6844L42.447 38.8647C42.0819 39.0452 41.7168 39.4061 41.3517 39.5864C40.9866 39.9475 40.804 40.3082 40.4389 40.6693C39.1609 42.2933 38.4307 44.2782 38.4307 46.2631C38.4307 47.7066 38.7958 49.1503 39.3436 50.4135L39.5263 50.9549C41.1693 54.3833 43.3599 57.4511 46.2812 60.1577L47.0114 60.8795C47.5589 61.4209 48.1067 61.7818 48.4718 62.323C52.3057 65.5713 56.6872 67.9171 61.6164 69.1802C62.1641 69.3605 62.8943 69.3605 63.4421 69.5411H65.2676C66.1805 69.5411 67.2758 69.1802 68.0062 68.8194C68.5537 68.4585 68.9188 68.4585 69.2839 68.0976L69.6493 67.7365C70.0144 67.3756 70.3795 67.1953 70.7446 66.8345C71.1097 66.4736 71.4748 66.1127 71.6575 65.7516C72.0226 65.0299 72.205 64.1276 72.3877 63.2255V61.9624C72.3877 61.9624 72.205 61.7818 71.8399 61.6015V61.6015Z" fill="white"/>
</g>
<defs>
<filter id="filter0_d" x="0" y="0" width="120" height="118" filterUnits="userSpaceOnUse" color-interpolation-filters="sRGB">
<feFlood flood-opacity="0" result="BackgroundImageFix"/>
<feColorMatrix in="SourceAlpha" type="matrix" values="0 0 0 0 0 0 0 0 0 0 0 0 0 0 0 0 0 0 127 0"/>
<feOffset dx="4" dy="4"/>
<feGaussianBlur stdDeviation="5"/>
<feColorMatrix type="matrix" values="0 0 0 0 0 0 0 0 0 0 0 0 0 0 0 0 0 0 0.25 0"/>
<feBlend mode="normal" in2="BackgroundImageFix" result="effect1_dropShadow"/>
<feBlend mode="normal" in="SourceGraphic" in2="effect1_dropShadow" result="shape"/>
</filter>
<filter id="filter1_d" x="18" y="17" width="75" height="75" filterUnits="userSpaceOnUse" color-interpolation-filters="sRGB">
<feFlood flood-opacity="0" result="BackgroundImageFix"/>
<feColorMatrix in="SourceAlpha" type="matrix" values="0 0 0 0 0 0 0 0 0 0 0 0 0 0 0 0 0 0 127 0"/>
<feOffset/>
<feGaussianBlur stdDeviation="2"/>
<feColorMatrix type="matrix" values="0 0 0 0 0 0 0 0 0 0 0 0 0 0 0 0 0 0 0.25 0"/>
<feBlend mode="normal" in2="BackgroundImageFix" result="effect1_dropShadow"/>
<feBlend mode="normal" in="SourceGraphic" in2="effect1_dropShadow" result="shape"/>
</filter>
<clipPath id="clip0">
<rect width="67" height="67" fill="white" transform="translate(22 21)"/>
</clipPath>
</defs>
</svg>
